<?xml version="1.0" encoding="UTF-8"?>
<svg id="Layer_1" xmlns="http://www.w3.org/2000/svg" version="1.1" xmlns:xlink="http://www.w3.org/1999/xlink" viewBox="0 0 826.89 286.44">
  <!-- Generator: Adobe Illustrator 30.2.1, SVG Export Plug-In . SVG Version: 2.1.1 Build 1)  -->
  <defs>
    <style>
      .st0 {
        fill: #fff;
      }

      .st1 {
        fill: url(#radial-gradient);
      }

      .st2 {
        fill: url(#radial-gradient1);
      }

      .st3 {
        fill: #c41e3a;
      }

      .st4 {
        fill: #ff0;
      }
    </style>
    <radialGradient id="radial-gradient" cx="158.29" cy="157.94" fx="158.29" fy="210.04" r="79.21" gradientUnits="userSpaceOnUse">
      <stop offset=".19" stop-color="#ffeb00"/>
      <stop offset=".26" stop-color="#ffcf09"/>
      <stop offset=".34" stop-color="#ffb512"/>
      <stop offset=".42" stop-color="#ffa218"/>
      <stop offset=".51" stop-color="#ff961c"/>
      <stop offset=".6" stop-color="#ff931e"/>
      <stop offset="1" stop-color="#c41e3a"/>
    </radialGradient>
    <radialGradient id="radial-gradient1" cx="152.67" cy="143.92" fx="257.51" fy="143.92" r="104.86" gradientUnits="userSpaceOnUse">
      <stop offset=".06" stop-color="#ffdf00"/>
      <stop offset=".57" stop-color="#ff9c18"/>
      <stop offset=".66" stop-color="#ef7a20"/>
      <stop offset=".85" stop-color="#d03832"/>
      <stop offset=".94" stop-color="#c41e3a"/>
    </radialGradient>
  </defs>
  <g>
    <path class="st0" d="M311.74,195.84c-7.26,0-13.21-1.43-17.87-4.29-4.66-2.86-8.1-6.79-10.33-11.78-2.23-4.99-3.35-10.72-3.35-17.17,0-7.65,1.43-14.06,4.29-19.22,2.86-5.16,6.84-9.04,11.93-11.63,5.09-2.6,10.97-3.89,17.62-3.89,3.53,0,6.31.27,8.34.8,2.03.53,3.63,1.08,4.79,1.65,1.16.57,2.25.85,3.25.85,1.13,0,1.9-.37,2.3-1.1.4-.73.7-1.46.9-2.2h4.29v24.56h-4.79c-1.33-6.26-3.59-11.02-6.79-14.28-3.2-3.26-7.36-4.89-12.48-4.89-6.06,0-10.57,2.28-13.53,6.84-2.96,4.56-4.44,11.2-4.44,19.92,0,6.19.75,11.22,2.25,15.08,1.5,3.86,3.79,6.67,6.89,8.44,3.1,1.76,6.97,2.65,11.63,2.65,4.93,0,8.94-.86,12.03-2.6,3.1-1.73,6.07-4.19,8.94-7.39l3.2,2.79c-2.2,3.13-4.51,5.98-6.94,8.54-2.43,2.56-5.39,4.59-8.89,6.09-3.49,1.5-7.91,2.25-13.23,2.25Z"/>
    <path class="st0" d="M404.3,194.64h-56.81v-4.29c2.8,0,4.86-.23,6.19-.7,1.33-.46,2.2-1.36,2.6-2.7.4-1.33.6-3.29.6-5.89v-38.04c0-2.53-.18-4.49-.55-5.89-.37-1.4-1.22-2.38-2.55-2.95-1.33-.56-3.4-.85-6.19-.85v-4.29h33.95v4.29c-2.86,0-4.99.28-6.39.85-1.4.57-2.31,1.55-2.75,2.95-.43,1.4-.65,3.4-.65,5.99v39.54c0,2.46.51,4.06,1.55,4.79,1.03.73,3.01,1.1,5.94,1.1h6.09c2.8,0,5.11-.23,6.94-.7,1.83-.46,3.33-1.26,4.49-2.4,1.16-1.13,2.15-2.66,2.95-4.59.8-1.93,1.56-4.36,2.3-7.29h5.09l-2.8,21.07Z"/>
    <path class="st0" d="M431.76,194.64h-22.77v-4.29c1.73,0,3.15-.26,4.24-.8,1.1-.53,2.1-1.5,3-2.9.9-1.4,1.85-3.39,2.85-5.99l21.67-52.12h10.48l21.57,52.32c1.33,3.2,2.75,5.58,4.24,7.14,1.5,1.56,3.38,2.35,5.64,2.35v4.29h-32.05v-4.29c.87,0,1.75-.05,2.65-.15s1.66-.38,2.3-.85c.63-.46.95-1.2.95-2.2,0-.73-.2-1.83-.6-3.29-.4-1.46-.87-2.9-1.4-4.29l-2.79-7.29-.8-2.6-9.39-26.16h-.4l-10.58,26.16-.8,2.6-3.4,8.59c-.27.87-.57,1.83-.9,2.9-.33,1.07-.5,2.03-.5,2.9,0,1.6.52,2.61,1.55,3.05,1.03.43,2.78.65,5.24.65v4.29ZM453.63,173.57h-25.76l1.8-5.19h22.17l1.8,5.19Z"/>
    <path class="st0" d="M512.94,195.44h-8.79l-21.27-52.32c-1.4-3.59-2.71-6.06-3.94-7.39-1.23-1.33-3.01-2.13-5.34-2.4v-4.29h30.85v4.29c-2.46,0-4.13.25-4.99.75-.87.5-1.3,1.28-1.3,2.35,0,1.26.33,2.86,1,4.79l11.18,27.36,2.6,7.89h.7l11.38-28.26,4.39,11.18h-2.2l-14.28,36.05ZM550.58,195.44h-9.39l-14.68-39.64-1.1-3.3-3.29-9.58c-1-2.86-1.88-4.98-2.65-6.34-.77-1.36-1.67-2.25-2.7-2.65-1.03-.4-2.48-.6-4.34-.6v-4.29h31.15v4.29c-4.93,0-7.39,1.3-7.39,3.89,0,.73.17,1.56.5,2.5.33.93.67,1.96,1,3.09l9.49,25.56,2.5,8.09h.7l10.28-31.35c.46-1.46.81-2.73,1.05-3.79.23-1.06.35-2.03.35-2.9,0-2.26-.67-3.68-2-4.24-1.33-.56-2.96-.85-4.89-.85v-4.29h22.47v4.29c-2.26,0-3.94.53-5.04,1.6-1.1,1.07-2.11,2.86-3.04,5.39l-18.97,55.12Z"/>
    <path class="st0" d="M615.58,194.64h-34.05v-4.29c2.53,0,4.46-.2,5.79-.6,1.33-.4,2.25-1.26,2.75-2.6.5-1.33.75-3.36.75-6.09v-39.94c0-2-.22-3.56-.65-4.69-.43-1.13-1.32-1.93-2.65-2.4-1.33-.46-3.33-.7-5.99-.7v-4.29h32.55c4.66,0,8.97.52,12.93,1.55,3.96,1.03,7.16,2.76,9.59,5.19,2.43,2.43,3.64,5.78,3.64,10.04,0,3.66-.73,6.62-2.2,8.89-1.46,2.26-3.39,4.03-5.79,5.29-2.4,1.27-4.99,2.23-7.79,2.9v.5c1.06.67,2.2,1.75,3.39,3.25s2.83,3.71,4.89,6.64c2.06,2.93,4.89,6.92,8.49,11.98,1.53,2.2,3.11,3.59,4.74,4.19,1.63.6,3.58.9,5.84.9v4.29h-22.67c-2.26-3.99-4.13-7.29-5.59-9.88-1.46-2.6-2.71-4.74-3.74-6.44-1.03-1.7-1.96-3.25-2.8-4.64-.83-1.4-1.75-2.9-2.75-4.49-.87-1.53-1.75-2.5-2.65-2.9-.9-.4-2.21-.6-3.94-.6h-2v15.48c0,2.66.23,4.66.7,5.99.46,1.33,1.4,2.2,2.8,2.6,1.4.4,3.53.6,6.39.6v4.29ZM605.7,160.79l3.79.1c3.33-.2,6.12-.73,8.39-1.6,2.26-.86,3.98-2.31,5.14-4.34,1.16-2.03,1.75-4.84,1.75-8.44,0-3.79-1.02-6.84-3.05-9.14-2.03-2.3-5.38-3.44-10.03-3.44-1.07,0-2.1.02-3.1.05-1,.03-1.96.12-2.9.25v26.56Z"/>
    <path class="st0" d="M701.35,194.64h-22.77v-4.29c1.73,0,3.15-.26,4.24-.8,1.1-.53,2.1-1.5,3-2.9.9-1.4,1.85-3.39,2.85-5.99l21.67-52.12h10.48l21.57,52.32c1.33,3.2,2.75,5.58,4.24,7.14,1.5,1.56,3.38,2.35,5.64,2.35v4.29h-32.05v-4.29c.86,0,1.75-.05,2.65-.15.9-.1,1.66-.38,2.3-.85.63-.46.95-1.2.95-2.2,0-.73-.2-1.83-.6-3.29-.4-1.46-.87-2.9-1.4-4.29l-2.79-7.29-.8-2.6-9.39-26.16h-.4l-10.58,26.16-.8,2.6-3.4,8.59c-.27.87-.57,1.83-.9,2.9-.33,1.07-.5,2.03-.5,2.9,0,1.6.51,2.61,1.55,3.05,1.03.43,2.78.65,5.24.65v4.29ZM723.22,173.57h-25.76l1.8-5.19h22.17l1.8,5.19Z"/>
    <path class="st0" d="M789.72,194.64h-33.05v-4.29c2.93,0,5.04-.25,6.34-.75,1.3-.5,2.11-1.46,2.45-2.9.33-1.43.5-3.58.5-6.44v-36.65c0-2.66-.18-4.73-.55-6.19-.37-1.46-1.2-2.51-2.5-3.15-1.3-.63-3.38-.95-6.24-.95v-4.29h33.45v4.29c-2.93,0-5.06.32-6.39.95-1.33.63-2.15,1.7-2.45,3.2-.3,1.5-.45,3.54-.45,6.14v36.65c0,2.8.15,4.93.45,6.39.3,1.47,1.08,2.45,2.35,2.95,1.26.5,3.29.75,6.09.75v4.29Z"/>
    <circle class="st3" cx="665.26" cy="187.81" r="8"/>
  </g>
  <path class="st4" d="M177.97,235.03c-.78.02-1.56.04-2.34.04-41.67,0-75.45-33.78-75.45-75.45s33.78-75.45,75.45-75.45c3.3,0,6.56.21,9.75.63,3.69-2.03,7.85-4.31,10.66-5.78-6.53-1.65-13.37-2.53-20.41-2.53-2.15,0-4.29.08-6.4.24-7.85-1.25-21.09-2.63-35.45,4.04,4.72-.95,9.18.1,13.16,0-37.36,12.36-52.17,36.27-52.17,36.27,8.1-6.25,14.1-8.05,18.56-11-4.04,4.56-7.51,7.99-10.48,13.36-8.9,10.94-21.15,29.13-19.3,42.31,1.95-6.52,5.41-9.74,8.52-14.22-4.48,13.63-3.13,34.72,15.47,67.08-2.57-6.78-6.79-16.05-8.43-21.75,8.79,23.71,36.26,43.47,62.92,47.85-7.58-4.05-13.8-9.2-13.8-9.2,15.53,8.42,30.88,10.12,39.63,10.29,7.44-2.73,18.85-7.66,30.17-15.48,6.8-4.69,11.86-11.14,15.59-17.52-13.54,15.7-33.42,25.77-55.66,26.24Z"/>
  <path class="st1" d="M177.97,234.09c-.78.02-1.56.04-2.34.04-41.67,0-75.45-33.78-75.45-75.45s33.78-75.45,75.45-75.45c3.3,0,6.56.21,9.75.63,3.69-2.03,7.85-4.31,10.66-5.78-6.53-1.65-13.37-2.53-20.41-2.53-2.15,0-4.29.08-6.4.24-7.85-1.25-21.09-1.68-35.45,4.99,4.72-.95,9.48-1.31,13.46-1.4-37.36,12.36-52.47,37.68-52.47,37.68,8.1-6.25,14.19-10.56,18.64-13.51-4.04,4.56-7.59,9.56-10.56,14.93-8.9,10.94-23.06,30.69-19.3,43.25,1.95-6.52,5.1-12.19,8.21-16.67-4.48,13.63-6.08,37.48,15.78,69.53-2.57-6.78-4.62-13-6.26-18.7,11.71,23.35,34.1,40.42,60.76,44.81-7.58-4.05-13.8-10.14-13.8-10.14,15.53,8.42,30.88,10.12,39.63,10.29,7.44-2.73,18.85-7.66,30.17-15.48,6.8-4.69,11.86-11.14,15.59-17.52-13.54,15.7-33.42,25.77-55.66,26.24Z"/>
  <g>
    <path class="st4" d="M78.24,205.08h0s0,.01,0,.01c0,0,0,0,0-.01Z"/>
    <path class="st4" d="M226.16,216.74c-15.72,15.74-37.44,25.47-61.44,25.47-47.96,0-86.84-38.88-86.84-86.83,0-10.47,1.85-20.51,5.25-29.8,12.16-33.28,44.37-57.72,81.82-56.02,7.33.33,24.39,7.33,15.89,10.83.89.02,1.85-.21,2.61-.46-.25.12-.53.26-.85.42-12.34,6.27-29.2,29.35-29.2,29.35,0,0,.27.65.57,1.34,10.87-11.56,27.47-18.95,46.08-18.95,25,0,46.37,13.33,55.08,32.19-4.74-15.71-13.3-30.92-24.43-42.15,0,0,0,0,0,0-1.28-1.29-2.59-2.54-3.94-3.76-.01-.01-.03-.03-.04-.04-.61-.55-1.23-1.09-1.85-1.63-.07-.06-.15-.13-.22-.2-.69-.59-.72-.24-1.43-.82,14.01,2.69,25.2,8.2,34.16,18.59-12.84-20.61-34.89-33.63-60.74-34.55-4.6-1.8-9-1.84-13.91-2.94,12.85-1.3,29.18-2.52,49.01,5.98-30.7-17.98-66.55-14.98-88.35-8.76,7.57-5.6,14.87-12.13,23.67-15.09-40.22-1.62-80.52,44.09-80.52,44.09,0,0-2.96-9.53,12.6-27.34-22.65,17.22-26.34,38.55-26.26,51.48-6.72,13.31-8.27,27.52-8.27,43.45,0,.03-1.19-.18-1.19-.15-5.22-11.81-11.12-30.6-6.26-57.84-20.76,53.06,15.85,102.22,21.82,110.87.28.45.53,2.67.81,3.11,0,0-1.54-1.53-1.54-1.53-9.28-5.51-22.78-15.79-29.79-31.8,0,0,3.04,27.13,55.05,57.5-6.05-1.71-14.94-5.16-24.59-9.73,25.94,16.32,45.81,23.46,57.51,25.79,7.8,1.99,15.96,3.04,24.38,3.04.15,0,.3,0,.46,0,.14,0,.27,0,.41,0,5.95,0,11.77-.58,17.38-1.69,28.89-5.69,52.62-25.31,63.65-51.4-.1.09-.2.17-.3.26-4.28,7.45-9.78,14.1-16.25,19.68Z"/>
  </g>
  <path class="st2" d="M225.68,215.79c-15.72,15.74-37.44,25.47-61.44,25.47-47.96,0-86.84-38.88-86.84-86.83,0-10.47,1.85-20.51,5.25-29.8,12.16-33.28,44.1-57.04,81.59-57.04,11.67,0,17.97,4.36,19.36,5.75,1.14,1.14,3.39,3.5-1.49,6.08-12.62,6.67-22.92,17.19-28.73,30.29,1.19-1.15,2.47-2.37,3.85-3.62,10.89-10.94,25.9-17.69,42.47-17.69,25.86,0,47.91,16.47,56.46,39.59-4.22-18-13.37-34.1-25.95-46.79h0s0,0,0,0c-1.28-1.29-2.59-2.54-3.94-3.76-.01-.01-.03-.03-.04-.04-.61-.55-1.23-1.09-1.85-1.63-.07-.06-.15-.13-.22-.2-.69-.59-1.4-1.18-2.11-1.75,14.01,2.69,26.35,10.08,35.31,20.47-12.84-20.61-35.36-34.57-61.21-35.49-4.6-1.8-9.36-3.26-14.27-4.36,12.85-1.3,30.01-.16,49.85,8.34-30.7-17.98-68.19-15.99-89.98-9.77,7.57-5.6,16.5-11.12,25.3-14.08-40.22-1.62-82.27,44.27-82.27,44.27,0,0-1.21-9.7,14.35-27.52-22.65,17.22-26.81,37.6-26.73,50.54-6.72,13.31-10.51,28.36-10.51,44.28,0,.03,0,.06,0,.09-5.22-11.81-9.6-30.73-4.74-57.97-20.76,53.06,13.8,101.5,19.77,110.16.28.45.57.89.85,1.34,0,0,0,.01,0,.02h0s0,0,0,0c0,0,0,0,0,0-9.28-5.51-22.78-15.79-29.79-31.8,0,0,3.41,27.08,45.04,50,2.97,2.78,6.11,5.38,9.41,7.79-6.05-1.71-13.87-4.5-23.52-9.07,25.94,16.32,45.34,22.52,57.04,24.85,7.8,1.99,15.96,3.04,24.38,3.04.15,0,.3,0,.46,0,.14,0,.27,0,.41,0,5.95,0,11.77-.58,17.38-1.69,29.24-5.76,53.22-25.79,64.07-52.36-4.38,7.95-10.14,15.02-16.96,20.9Z"/>
</svg>