<?xml version="1.0" encoding="UTF-8"?>
<svg id="Layer_1" xmlns="http://www.w3.org/2000/svg" version="1.1" xmlns:xlink="http://www.w3.org/1999/xlink" viewBox="0 0 300 300">
  <!-- Generator: Adobe Illustrator 30.2.1, SVG Export Plug-In . SVG Version: 2.1.1 Build 1)  -->
  <defs>
    <style>
      .st0 {
        fill: url(#radial-gradient);
      }

      .st1 {
        fill: url(#radial-gradient1);
      }

      .st2 {
        fill: #ff0;
      }
    </style>
    <radialGradient id="radial-gradient" cx="155.1" cy="166.61" fx="155.1" fy="230.46" r="97.08" gradientUnits="userSpaceOnUse">
      <stop offset=".19" stop-color="#ffeb00"/>
      <stop offset=".26" stop-color="#ffcf09"/>
      <stop offset=".34" stop-color="#ffb512"/>
      <stop offset=".42" stop-color="#ffa218"/>
      <stop offset=".51" stop-color="#ff961c"/>
      <stop offset=".6" stop-color="#ff931e"/>
      <stop offset="1" stop-color="#c41e3a"/>
    </radialGradient>
    <radialGradient id="radial-gradient1" cx="148.21" cy="149.42" fx="276.71" fy="149.42" r="128.51" gradientUnits="userSpaceOnUse">
      <stop offset=".06" stop-color="#ffdf00"/>
      <stop offset=".57" stop-color="#ff9c18"/>
      <stop offset=".66" stop-color="#ef7a20"/>
      <stop offset=".85" stop-color="#d03832"/>
      <stop offset=".94" stop-color="#c41e3a"/>
    </radialGradient>
  </defs>
  <path class="st2" d="M179.23,261.09c-.95.03-1.91.05-2.87.05-51.07,0-92.47-41.4-92.47-92.47s41.4-92.47,92.47-92.47c4.05,0,8.04.26,11.95.77,4.52-2.49,9.62-5.28,13.06-7.08-8-2.02-16.38-3.1-25.02-3.1-2.64,0-5.25.1-7.84.3-9.63-1.53-25.85-3.22-43.44,4.96,5.79-1.17,11.25.12,16.13.01-45.79,15.15-63.94,44.46-63.94,44.46,9.92-7.66,17.29-9.86,22.75-13.48-4.95,5.58-9.2,9.79-12.84,16.37-10.91,13.41-25.92,35.7-23.65,51.86,2.39-7.99,6.63-11.93,10.44-17.43-5.49,16.7-3.84,42.55,18.96,82.21-3.15-8.31-8.33-19.67-10.33-26.65,10.78,29.06,44.45,53.27,77.12,58.65-9.29-4.97-16.91-11.27-16.91-11.27,19.03,10.32,37.84,12.4,48.57,12.61,9.11-3.34,23.1-9.39,36.98-18.97,8.33-5.75,14.54-13.65,19.11-21.47-16.6,19.24-40.96,31.58-68.22,32.16Z"/>
  <path class="st0" d="M179.23,259.93c-.95.03-1.91.05-2.87.05-51.07,0-92.47-41.4-92.47-92.47s41.4-92.47,92.47-92.47c4.05,0,8.04.26,11.95.77,4.52-2.49,9.62-5.28,13.06-7.08-8-2.02-16.38-3.1-25.02-3.1-2.64,0-5.25.1-7.84.3-9.63-1.53-25.85-2.06-43.44,6.11,5.79-1.17,11.62-1.61,16.49-1.72-45.79,15.15-64.31,46.19-64.31,46.19,9.92-7.66,17.39-12.94,22.85-16.56-4.95,5.58-9.3,11.72-12.94,18.29-10.91,13.41-28.26,37.61-23.65,53.01,2.39-7.99,6.25-14.94,10.06-20.43-5.49,16.7-7.46,45.93,19.34,85.22-3.15-8.31-5.67-15.93-7.67-22.92,14.35,28.62,41.79,49.54,74.46,54.91-9.29-4.97-16.91-12.43-16.91-12.43,19.03,10.32,37.84,12.4,48.57,12.61,9.11-3.34,23.1-9.39,36.98-18.97,8.33-5.75,14.54-13.65,19.11-21.47-16.6,19.24-40.96,31.58-68.22,32.16Z"/>
  <g>
    <path class="st2" d="M56.99,224.38h0s0,.02.01.02c0,0,0-.01-.01-.02Z"/>
    <path class="st2" d="M238.28,238.66c-19.26,19.29-45.88,31.22-75.3,31.22-58.78,0-106.43-47.65-106.43-106.42,0-12.83,2.27-25.13,6.43-36.52,14.9-40.79,54.38-70.74,100.27-68.65,8.99.41,29.89,8.99,19.47,13.28,1.09.02,2.27-.26,3.2-.56-.31.15-.65.32-1.04.52-15.12,7.69-35.79,35.97-35.79,35.97,0,0,.33.8.7,1.64,13.32-14.16,33.66-23.22,56.47-23.22,30.64,0,56.83,16.34,67.5,39.45-5.81-19.25-16.3-37.9-29.95-51.66,0,0,0,0,0,0-1.57-1.58-3.18-3.12-4.83-4.61-.02-.02-.03-.03-.05-.05-.75-.67-1.51-1.34-2.27-1.99-.09-.08-.18-.16-.27-.24-.85-.73-.88-.3-1.76-1,17.17,3.29,30.88,10.05,41.86,22.78-15.73-25.26-42.76-41.21-74.44-42.35-5.64-2.2-11.04-2.26-17.05-3.6,15.75-1.59,35.76-3.09,60.07,7.33-37.62-22.03-81.57-18.36-108.28-10.74,9.28-6.86,18.22-14.87,29-18.5-49.3-1.98-98.68,54.04-98.68,54.04,0,0-3.63-11.68,15.44-33.51-27.76,21.1-32.28,47.24-32.18,63.1-8.23,16.32-10.14,33.73-10.14,53.25,0,.04-1.45-.22-1.45-.18-6.4-14.47-13.62-37.5-7.68-70.88-25.44,65.03,19.43,125.28,26.74,135.88.34.55.65,3.27,1,3.81,0,0-1.88-1.88-1.88-1.87-11.37-6.76-27.92-19.36-36.51-38.98,0,0,3.72,33.25,67.47,70.47-7.41-2.09-18.31-6.32-30.14-11.92,31.79,20,56.14,28.75,70.49,31.61,9.55,2.43,19.56,3.73,29.88,3.73.19,0,.37,0,.56,0,.17,0,.33,0,.5,0,7.3,0,14.42-.71,21.3-2.07,35.4-6.98,64.5-31.02,78.01-62.99-.12.11-.25.21-.37.32-5.25,9.13-11.99,17.29-19.91,24.11Z"/>
  </g>
  <path class="st1" d="M237.7,237.51c-19.26,19.29-45.88,31.22-75.3,31.22-58.78,0-106.43-47.65-106.43-106.42,0-12.83,2.27-25.13,6.43-36.52,14.9-40.79,54.05-69.91,100-69.91,14.31,0,22.03,5.34,23.73,7.04,1.4,1.39,4.15,4.29-1.83,7.45-15.46,8.17-28.09,21.06-35.21,37.12,1.45-1.4,3.03-2.9,4.72-4.44,13.35-13.4,31.74-21.69,52.05-21.69,31.7,0,58.72,20.18,69.2,48.52-5.17-22.06-16.38-41.79-31.81-57.34h0s0,0,0,0c-1.57-1.58-3.18-3.12-4.83-4.61-.02-.02-.03-.03-.05-.05-.75-.67-1.51-1.34-2.27-1.99-.09-.08-.18-.16-.27-.24-.85-.73-1.71-1.44-2.58-2.14,17.17,3.29,32.29,12.35,43.27,25.08-15.73-25.26-43.34-42.37-75.02-43.5-5.64-2.2-11.48-4-17.49-5.34,15.75-1.59,36.78-.19,61.09,10.23-37.62-22.03-83.57-19.6-110.28-11.98,9.28-6.86,20.22-13.63,31-17.25-49.3-1.98-100.83,54.25-100.83,54.25,0,0-1.49-11.89,17.59-33.73-27.76,21.1-32.86,46.09-32.76,61.94-8.23,16.32-12.88,34.75-12.88,54.27,0,.04,0,.07,0,.11-6.4-14.47-11.76-37.66-5.81-71.04-25.44,65.03,16.91,124.4,24.22,135.01.34.55.69,1.1,1.05,1.64,0,0,0,.02,0,.02h0s0,0,.01,0c0,0,0,0-.01,0-11.37-6.76-27.92-19.36-36.51-38.98,0,0,4.18,33.19,55.2,61.27,3.64,3.41,7.49,6.6,11.53,9.54-7.41-2.09-17-5.51-28.83-11.11,31.79,20,55.56,27.6,69.91,30.46,9.55,2.43,19.56,3.73,29.88,3.73.19,0,.37,0,.56,0,.17,0,.33,0,.5,0,7.3,0,14.42-.71,21.3-2.07,35.84-7.06,65.23-31.61,78.52-64.18-5.36,9.74-12.42,18.41-20.79,25.61Z"/>
</svg>